<svg id="icon_vpn_disabled_Layer_1" xmlns="http://www.w3.org/2000/svg" viewBox="0 0 24 30">
  <style>
    .icon_vpn_disabled_0{fill:#afafaf}.icon_vpn_disabled_1{fill:#7e7e7e}
  </style>
  <switch>
    <g>
      <path class="icon_vpn_disabled_0" d="M21.7 11.7c-.6-1.8.6-4 .6-4s-.6 0-2 1.3c-1.4 1.2-1.4 2.9-1.4 2.9-1.7-3.9-5-6.4-6.3-8-1.3-1.7-.4-3.9-.4-3.9C9.7 1.1 8.4 3.8 8 7c-.4 3.2-2.4 4.4-2.4 4.4-.3-3-3.8-3.8-3.8-3.8.7.2 1.9 3.7.6 6.2-.9 1.7-1.4 3.5-1.4 5.3.1 6 3.9 10.9 11 10.9 6.5 0 10.9-4.9 10.9-10.8.1-2.2-.6-5.7-1.2-7.5z"/>
      <ellipse class="icon_vpn_disabled_1" cx="15.5" cy="18" rx="1.5" ry="2"/>
      <ellipse class="icon_vpn_disabled_1" cx="8.5" cy="18" rx="1.5" ry="2"/>
      <path class="icon_vpn_disabled_1" d="M19 20c0 4-3 7-7 7s-7-3-7-7H4c0 4.4 3.5 8 8 8s8-3.6 8-8h-1z"/>
    </g>
  </switch>
</svg>
